<?xml version="1.0" encoding="utf-8"?>
<svg version="1.2" baseProfile="tiny" id="starmask" xmlns="http://www.w3.org/2000/svg" xmlns:xlink="http://www.w3.org/1999/xlink"
	 x="0px" y="0px" width="310px" height="60px" viewBox="0 0 310 60" xml:space="preserve">
<path fill="#FFFFFF" id="starpath" d="M0,0v60h310V0H0z M242.84,48.61l-11.77-6.19l-11.77,6.19l2.25-13.11l-9.37-9.13l-9.37,9.13l2.25,13.11
	l-11.77-6.19l-11.77,6.19l2.25-13.11l-9.37-9.13l-9.37,9.13l2.25,13.11l-11.77-6.19l-11.77,6.19l2.25-13.11l-9.37-9.13l-9.37,9.13
	l2.25,13.11l-11.77-6.19l-11.77,6.19l2.25-13.11l-9.37-9.13l-9.37,9.13l2.25,13.11l-11.77-6.19l-11.77,6.19l2.25-13.11l-9.52-9.28
	l13.16-1.91l5.89-11.93l5.89,11.93l13.01,1.89l13.01-1.89l5.89-11.93l5.89,11.93l13.01,1.89l13.01-1.89l5.89-11.93l5.89,11.93
	l13.01,1.89l13.01-1.89l5.89-11.93l5.89,11.93l13.01,1.89l13.01-1.89l5.89-11.93l5.89,11.93l13.16,1.91l-9.52,9.28L242.84,48.61z"/>
</svg>
